<?xml version="1.0" encoding="UTF-8"?>
<svg xmlns="http://www.w3.org/2000/svg" viewBox="0 0 900 400" width="100%" preserveAspectRatio="xMidYMid meet" role="img" aria-label="Watch the demo reel on Bilibili">
  <defs>
    <linearGradient id="bg" x1="0" y1="0" x2="0" y2="1">
      <stop offset="0" stop-color="#141414"/>
      <stop offset="1" stop-color="#050505"/>
    </linearGradient>
  </defs>
  <rect width="900" height="400" fill="url(#bg)"/>

  <!-- Film-strip borders (top / bottom) -->
  <rect x="0" y="0"   width="900" height="34" fill="#1a1a1a"/>
  <rect x="0" y="366" width="900" height="34" fill="#1a1a1a"/>
  <g fill="#0a0a0a">
    <rect x="24"  y="10" width="28" height="14" rx="2"/>
    <rect x="82"  y="10" width="28" height="14" rx="2"/>
    <rect x="140" y="10" width="28" height="14" rx="2"/>
    <rect x="198" y="10" width="28" height="14" rx="2"/>
    <rect x="256" y="10" width="28" height="14" rx="2"/>
    <rect x="314" y="10" width="28" height="14" rx="2"/>
    <rect x="372" y="10" width="28" height="14" rx="2"/>
    <rect x="430" y="10" width="28" height="14" rx="2"/>
    <rect x="488" y="10" width="28" height="14" rx="2"/>
    <rect x="546" y="10" width="28" height="14" rx="2"/>
    <rect x="604" y="10" width="28" height="14" rx="2"/>
    <rect x="662" y="10" width="28" height="14" rx="2"/>
    <rect x="720" y="10" width="28" height="14" rx="2"/>
    <rect x="778" y="10" width="28" height="14" rx="2"/>
    <rect x="836" y="10" width="28" height="14" rx="2"/>

    <rect x="24"  y="376" width="28" height="14" rx="2"/>
    <rect x="82"  y="376" width="28" height="14" rx="2"/>
    <rect x="140" y="376" width="28" height="14" rx="2"/>
    <rect x="198" y="376" width="28" height="14" rx="2"/>
    <rect x="256" y="376" width="28" height="14" rx="2"/>
    <rect x="314" y="376" width="28" height="14" rx="2"/>
    <rect x="372" y="376" width="28" height="14" rx="2"/>
    <rect x="430" y="376" width="28" height="14" rx="2"/>
    <rect x="488" y="376" width="28" height="14" rx="2"/>
    <rect x="546" y="376" width="28" height="14" rx="2"/>
    <rect x="604" y="376" width="28" height="14" rx="2"/>
    <rect x="662" y="376" width="28" height="14" rx="2"/>
    <rect x="720" y="376" width="28" height="14" rx="2"/>
    <rect x="778" y="376" width="28" height="14" rx="2"/>
    <rect x="836" y="376" width="28" height="14" rx="2"/>
  </g>

  <!-- Play button -->
  <circle cx="450" cy="185" r="62" fill="#e63946"/>
  <polygon points="430,151 430,219 490,185" fill="#f5f5f5"/>

  <!-- Captions -->
  <text x="450" y="294" text-anchor="middle" font-family="Georgia, 'Times New Roman', serif" font-size="22" font-style="italic" fill="#f5f5f5">70-second animated short · end-to-end by Hitchcock</text>
  <text x="450" y="334" text-anchor="middle" font-family="Helvetica, Arial, sans-serif" font-size="11" font-weight="700" letter-spacing="6" fill="#a8a8a8">▶  WATCH  ON  BILIBILI</text>
</svg>
